<svg id="Capa_1" data-name="Capa 1" xmlns="http://www.w3.org/2000/svg" viewBox="0 0 464.8 384.4"><defs><style>.cls-1,.cls-8{fill:#0172b1;}.cls-2{fill:#3cbfbd;}.cls-2,.cls-3,.cls-4{stroke:#050505;}.cls-2,.cls-3,.cls-4,.cls-8{stroke-miterlimit:10;}.cls-2,.cls-3,.cls-8{stroke-width:4px;}.cls-3,.cls-6{fill:#fff;}.cls-4,.cls-7{fill:#7759a6;}.cls-4{stroke-width:3px;}.cls-5{fill:#ff826e;}.cls-8{stroke:#020202;}</style></defs><circle class="cls-1" cx="234.38" cy="192.2" r="144.91"/><path class="cls-2" d="M291.63,159.3v.16a35.75,35.75,0,0,0-12.9,3.65l-.27-.52V119.81H186.34v26.33H173.17V106.65a13.16,13.16,0,0,1,13.17-13.16h92.12a13.16,13.16,0,0,1,13.17,13.16Zm0,0"/><path class="cls-2" d="M291.63,231.68v46.07a13.16,13.16,0,0,1-13.17,13.16H186.34a13.16,13.16,0,0,1-13.17-13.16V238.26h13.17v13.17h92.12v-23l.27-.52a35.75,35.75,0,0,0,12.9,3.65Zm0,0"/><path class="cls-3" d="M206.08,271.17l-5.63,5.63a3.32,3.32,0,0,1-2.3.95h-1.94a3.3,3.3,0,0,1-3.29-3.29v-6.58a3.3,3.3,0,0,1,3.29-3.29h1.94a3.32,3.32,0,0,1,2.3,1Zm0,0"/><path class="cls-3" d="M239,267.88v6.58a3.3,3.3,0,0,1-3.29,3.29h-6.58a3.3,3.3,0,0,1-3.29-3.29v-6.58a3.3,3.3,0,0,1,3.29-3.29h6.58a3.3,3.3,0,0,1,3.29,3.29Zm0,0"/><path class="cls-3" d="M271.88,274.46a3.3,3.3,0,0,1-3.29,3.29h-1.94a3.32,3.32,0,0,1-2.3-.95l-5.63-5.63,5.63-5.63a3.32,3.32,0,0,1,2.3-1h1.94a3.3,3.3,0,0,1,3.29,3.29Zm0,0"/><path class="cls-3" d="M186.34,119.81v26.33h3.29l2.13,8.45a39.91,39.91,0,0,1,6.06,2.53l7.53-4.47,14,13.95-4.48,7.54a39.21,39.21,0,0,1,2.53,6.05l8.46,2.14v19.74l-8.46,2.14a39.21,39.21,0,0,1-2.53,6l4.48,7.54-14,13.95-7.53-4.47a39.91,39.91,0,0,1-6.06,2.53l-2.13,8.45h-3.29v13.17h92.12V119.81Zm0,0"/><path class="cls-3" d="M331.11,195.49a36.2,36.2,0,1,1-36.19-36.19,36.19,36.19,0,0,1,36.19,36.19Zm0,0"/><path class="cls-4" d="M320.84,220.73a35.88,35.88,0,0,1-25.92,11c-1.12,0-2.21-.06-3.29-.16A35.9,35.9,0,0,1,269,220.73a26.28,26.28,0,0,1,51.85,0Zm0,0"/><path class="cls-3" d="M308.08,185.62a13.17,13.17,0,1,1-13.16-13.16,13.16,13.16,0,0,1,13.16,13.16Zm0,0"/><path class="cls-5" d="M265.3,149.43l-32.9,16.45V133Zm0,0"/><path class="cls-2" d="M179.75,165.88a26.32,26.32,0,1,1-26.32,26.32,26.32,26.32,0,0,1,26.32-26.32Zm13.17,26.32a13.17,13.17,0,1,0-13.17,13.16,13.16,13.16,0,0,0,13.17-13.16Zm0,0"/><path d="M209.37,192.2a29.62,29.62,0,1,0-29.62,29.61,29.65,29.65,0,0,0,29.62-29.61Zm-52.65,0a23,23,0,1,1,23,23,23.05,23.05,0,0,1-23-23Zm0,0"/><path class="cls-6" d="M169.88,192.2a9.88,9.88,0,1,1,9.87,9.87,9.88,9.88,0,0,1-9.87-9.87Z"/><rect x="229.11" y="103.36" width="19.74" height="6.58"/><rect x="215.95" y="103.36" width="6.58" height="6.58"/><polygon class="cls-7" points="229.11 127.65 229.11 171.2 272.66 149.43 229.11 127.65"/><polygon class="cls-6" points="235.69 138.3 257.95 149.43 235.69 160.55 235.69 138.3"/><path class="cls-8" d="M225.82,182.33v19.74l-8.46,2.14a39.21,39.21,0,0,1-2.53,6l4.48,7.54-14,13.95-7.53-4.47a39.91,39.91,0,0,1-6.06,2.53l-2.13,8.45H169.88l-2.13-8.45a39.91,39.91,0,0,1-6.06-2.53l-7.53,4.47-14-13.95,4.48-7.54a39.21,39.21,0,0,1-2.53-6l-8.46-2.14V182.33l8.46-2.14a39.21,39.21,0,0,1,2.53-6.05l-4.48-7.54,14-13.95,7.53,4.47a39.91,39.91,0,0,1,6.06-2.53l2.13-8.45h19.75l2.13,8.45a39.91,39.91,0,0,1,6.06,2.53l7.53-4.47,14,13.95-4.48,7.54a39.21,39.21,0,0,1,2.53,6.05Zm-19.74,9.87a26.33,26.33,0,1,0-26.33,26.32,26.32,26.32,0,0,0,26.33-26.32Zm0,0"/></svg>